<mxfile host="65bd71144e">
    <diagram id="yLkPiW5OjbrbtTg0xUS2" name="Page-1">
        <mxGraphModel dx="1006" dy="653" grid="1" gridSize="10" guides="1" tooltips="1" connect="1" arrows="1" fold="1" page="1" pageScale="1" pageWidth="850" pageHeight="1100" math="0" shadow="0">
            <root>
                <mxCell id="0"/>
                <mxCell id="1" parent="0"/>
                <mxCell id="2" value="&lt;font style=&quot;font-size: 24px;&quot;&gt;&lt;b&gt;Tested lib&lt;/b&gt;&lt;/font&gt;" style="whiteSpace=wrap;html=1;aspect=fixed;fillColor=#6a00ff;fontColor=#ffffff;strokeColor=#000000;align=left;verticalAlign=top;" parent="1" vertex="1">
                    <mxGeometry x="400" y="78.56" width="401.44" height="401.44" as="geometry"/>
                </mxCell>
                <mxCell id="44" value="" style="endArrow=none;html=1;entryX=0.5;entryY=0.4;entryDx=0;entryDy=0;entryPerimeter=0;exitX=-0.004;exitY=0.325;exitDx=0;exitDy=0;exitPerimeter=0;strokeColor=#000000;strokeWidth=3;shape=flexArrow;fillColor=#FF0000;startArrow=block;endFill=0;" edge="1" parent="1">
                    <mxGeometry width="50" height="50" relative="1" as="geometry">
                        <mxPoint x="400.0042400000001" y="208.07800000000003" as="sourcePoint"/>
                        <mxPoint x="512.33" y="349.05" as="targetPoint"/>
                        <Array as="points">
                            <mxPoint x="511.61" y="289.05"/>
                        </Array>
                    </mxGeometry>
                </mxCell>
                <mxCell id="4" value="" style="verticalLabelPosition=bottom;verticalAlign=top;html=1;shape=mxgraph.basic.flash;fillColor=#FF0000;fontColor=#ffffff;strokeColor=#000000;strokeWidth=2;" parent="1" vertex="1">
                    <mxGeometry x="491.44" y="330" width="38.56" height="50" as="geometry"/>
                </mxCell>
                <mxCell id="8" value="" style="endArrow=classic;html=1;exitX=0;exitY=0.25;exitDx=0;exitDy=0;entryX=1.009;entryY=0.559;entryDx=0;entryDy=0;entryPerimeter=0;strokeColor=#FFFFFF;strokeWidth=3;endSize=6;" parent="1" source="2" target="2" edge="1">
                    <mxGeometry width="50" height="50" relative="1" as="geometry">
                        <mxPoint x="617.4200000000001" y="228.01999999999998" as="sourcePoint"/>
                        <mxPoint x="541.44" y="440" as="targetPoint"/>
                        <Array as="points">
                            <mxPoint x="580" y="303"/>
                            <mxPoint x="650" y="300"/>
                        </Array>
                    </mxGeometry>
                </mxCell>
                <mxCell id="13" value="" style="endArrow=classic;html=1;entryX=0.5;entryY=0.4;entryDx=0;entryDy=0;entryPerimeter=0;exitX=-0.004;exitY=0.325;exitDx=0;exitDy=0;exitPerimeter=0;strokeColor=#FFFFFF;strokeWidth=3;endSize=6;" parent="1" source="2" target="4" edge="1">
                    <mxGeometry width="50" height="50" relative="1" as="geometry">
                        <mxPoint x="535.44" y="220" as="sourcePoint"/>
                        <mxPoint x="551.44" y="450" as="targetPoint"/>
                        <Array as="points">
                            <mxPoint x="510" y="290"/>
                        </Array>
                    </mxGeometry>
                </mxCell>
                <mxCell id="16" value="" style="endArrow=classic;html=1;entryX=1.001;entryY=0.484;entryDx=0;entryDy=0;entryPerimeter=0;strokeColor=#FFFFFF;endSize=6;strokeWidth=3;exitX=0;exitY=0.148;exitDx=0;exitDy=0;exitPerimeter=0;" parent="1" source="2" target="2" edge="1">
                    <mxGeometry width="50" height="50" relative="1" as="geometry">
                        <mxPoint x="441.44" y="180" as="sourcePoint"/>
                        <mxPoint x="681.44" y="271.9200000000001" as="targetPoint"/>
                        <Array as="points">
                            <mxPoint x="600" y="273"/>
                        </Array>
                    </mxGeometry>
                </mxCell>
                <mxCell id="17" value="" style="endArrow=classic;html=1;exitX=-0.005;exitY=0.449;exitDx=0;exitDy=0;exitPerimeter=0;strokeColor=#FFFFFF;strokeWidth=3;endSize=6;" parent="1" source="2" edge="1">
                    <mxGeometry width="50" height="50" relative="1" as="geometry">
                        <mxPoint x="471.44" y="300" as="sourcePoint"/>
                        <mxPoint x="800" y="400" as="targetPoint"/>
                        <Array as="points">
                            <mxPoint x="481.44" y="324"/>
                            <mxPoint x="481.44" y="400"/>
                            <mxPoint x="530" y="400"/>
                            <mxPoint x="591.44" y="400"/>
                        </Array>
                    </mxGeometry>
                </mxCell>
                <mxCell id="18" value="" style="endArrow=classic;html=1;strokeColor=#FFFFFF;strokeWidth=3;" parent="1" edge="1">
                    <mxGeometry width="50" height="50" relative="1" as="geometry">
                        <mxPoint x="580" y="401.44" as="sourcePoint"/>
                        <mxPoint x="580" y="371.44" as="targetPoint"/>
                        <Array as="points">
                            <mxPoint x="580" y="330"/>
                            <mxPoint x="660" y="330"/>
                            <mxPoint x="660" y="370"/>
                        </Array>
                    </mxGeometry>
                </mxCell>
                <mxCell id="42" value="" style="rounded=0;whiteSpace=wrap;html=1;fillColor=#dae8fc;strokeColor=#6c8ebf;" parent="1" vertex="1">
                    <mxGeometry x="320" y="190" width="70" height="38.56" as="geometry"/>
                </mxCell>
                <mxCell id="43" value="" style="endArrow=classic;html=1;exitX=-0.004;exitY=0.325;exitDx=0;exitDy=0;exitPerimeter=0;strokeColor=#FFFFFF;strokeWidth=3;endSize=6;" parent="1" edge="1">
                    <mxGeometry width="50" height="50" relative="1" as="geometry">
                        <mxPoint x="390.0042400000001" y="303.028" as="sourcePoint"/>
                        <mxPoint x="580" y="400" as="targetPoint"/>
                        <Array as="points">
                            <mxPoint x="460" y="350"/>
                            <mxPoint x="460" y="430"/>
                            <mxPoint x="580" y="430"/>
                        </Array>
                    </mxGeometry>
                </mxCell>
                <mxCell id="45" value="&lt;div style=&quot;text-align: right;&quot;&gt;&lt;span style=&quot;font-size: 24px; background-color: initial;&quot;&gt;Symbolic&lt;/span&gt;&lt;/div&gt;&lt;font style=&quot;font-size: 24px;&quot;&gt;solution&lt;/font&gt;" style="text;html=1;strokeColor=none;fillColor=none;align=center;verticalAlign=middle;whiteSpace=wrap;rounded=0;" vertex="1" parent="1">
                    <mxGeometry x="230" y="190" width="60" height="30" as="geometry"/>
                </mxCell>
            </root>
        </mxGraphModel>
    </diagram>
</mxfile>